<svg width="48" height="48" viewBox="0 0 48 48" fill="none" xmlns="http://www.w3.org/2000/svg">
<rect width="48" height="48" fill="white"/>
<path d="M27.5 40C27.5 41.4117 26.4441 43.0107 24.0284 44.3435C21.6658 45.647 18.2999 46.5 14.5 46.5C10.7001 46.5 7.33421 45.647 4.97157 44.3435C2.55592 43.0107 1.5 41.4117 1.5 40C1.5 38.5883 2.55592 36.9893 4.97157 35.6565C7.33421 34.353 10.7001 33.5 14.5 33.5C18.2999 33.5 21.6658 34.353 24.0284 35.6565C26.4441 36.9893 27.5 38.5883 27.5 40Z" stroke="#152C58" stroke-width="3"/>
<path d="M26.3924 10.9881C26.4115 11.2933 26.4337 11.5998 26.4553 11.8983C26.4627 12.0017 26.4702 12.1042 26.4773 12.2053C26.5893 13.7812 26.2877 16.3144 25.5973 19.3166C24.9146 22.2852 23.8799 25.5933 22.6045 28.6767C21.3238 31.7731 19.8298 34.5714 18.2545 36.5677C16.6226 38.6355 15.1795 39.5 14.0469 39.5C12.9032 39.5 11.4425 38.6538 9.79308 36.6584C8.19696 34.7275 6.67062 32.0126 5.36437 28.9867C4.06321 25.9726 3.0099 22.7185 2.33276 19.7548C1.64846 16.7597 1.37652 14.1819 1.55148 12.4775L1.56065 12.3882C1.6144 11.8648 1.66931 11.3301 1.71618 10.7909C2.14823 5.81946 7.27567 1.5 14.0469 1.5C20.9105 1.5 26.0763 5.93202 26.3924 10.9881Z" fill="white" stroke="#152C58" stroke-width="3"/>
<circle cx="14" cy="14" r="4.5" stroke="#FF498B" stroke-width="3"/>
</svg>
