<svg width="48" height="48" viewBox="0 0 48 48" fill="none" xmlns="http://www.w3.org/2000/svg">
<rect width="48" height="48" fill="white"/>
<path d="M41 21V8.20875C41 7.58345 40.7075 6.99413 40.2095 6.61596L38.0481 4.97459C37.299 4.40571 36.2547 4.43574 35.5395 5.04674L33 7.21622" stroke="#FF498B" stroke-width="3" stroke-linecap="round"/>
<path d="M1.5 25C1.5 23.6193 2.61929 22.5 4 22.5H44C45.3807 22.5 46.5 23.6193 46.5 25V26C46.5 27.3807 45.3807 28.5 44 28.5H4C2.61929 28.5 1.5 27.3807 1.5 26V25Z" stroke="#152C58" stroke-width="3"/>
<path d="M5.5 28.5H42.5V38C42.5 39.933 40.933 41.5 39 41.5H9C7.067 41.5 5.5 39.933 5.5 38V28.5Z" stroke="#152C58" stroke-width="3"/>
<path d="M11 43V46" stroke="#152C58" stroke-width="3" stroke-linecap="round"/>
<path d="M37 43V46" stroke="#152C58" stroke-width="3" stroke-linecap="round"/>
</svg>
