<svg width="48" height="48" viewBox="0 0 48 48" fill="none" xmlns="http://www.w3.org/2000/svg">
<rect width="48" height="48" fill="white"/>
<path d="M6.14579 19.9759C6.54908 19.0778 7.44191 18.5 8.42639 18.5H39.5736C40.5581 18.5 41.4509 19.0778 41.8542 19.9759L44.0995 24.9759C44.8424 26.63 43.6322 28.5 41.8189 28.5H6.18107C4.36776 28.5 3.15764 26.63 3.90046 24.9759L6.14579 19.9759Z" stroke="#152C58" stroke-width="3"/>
<mask id="path-2-inside-1" fill="white">
<path d="M8.5 46C6.567 46 5 44.433 5 42.5L5 29C5 28.4477 5.44772 28 6 28H11C11.5523 28 12 28.4477 12 29V42.5C12 44.433 10.433 46 8.5 46Z"/>
</mask>
<path d="M8.5 46C6.567 46 5 44.433 5 42.5L5 29C5 28.4477 5.44772 28 6 28H11C11.5523 28 12 28.4477 12 29V42.5C12 44.433 10.433 46 8.5 46Z" stroke="#152C58" stroke-width="6" mask="url(#path-2-inside-1)"/>
<mask id="path-3-inside-2" fill="white">
<path d="M39.5 46C37.567 46 36 44.433 36 42.5V29C36 28.4477 36.4477 28 37 28H42C42.5523 28 43 28.4477 43 29V42.5C43 44.433 41.433 46 39.5 46Z"/>
</mask>
<path d="M39.5 46C37.567 46 36 44.433 36 42.5V29C36 28.4477 36.4477 28 37 28H42C42.5523 28 43 28.4477 43 29V42.5C43 44.433 41.433 46 39.5 46Z" stroke="#152C58" stroke-width="6" mask="url(#path-3-inside-2)"/>
<path d="M15 12V17" stroke="#152C58" stroke-width="3" stroke-linecap="round"/>
<mask id="path-5-inside-3" fill="white">
<path d="M15 13C12.7909 13 11 11.2091 11 9V3C11 2.44771 11.4477 2 12 2H18C18.5523 2 19 2.44772 19 3V9C19 11.2091 17.2091 13 15 13Z"/>
</mask>
<path d="M15 13C12.7909 13 11 11.2091 11 9V3C11 2.44771 11.4477 2 12 2H18C18.5523 2 19 2.44772 19 3V9C19 11.2091 17.2091 13 15 13Z" stroke="#FF498B" stroke-width="6" mask="url(#path-5-inside-3)"/>
<path d="M32 12V17" stroke="#152C58" stroke-width="3" stroke-linecap="round"/>
<mask id="path-7-inside-4" fill="white">
<path d="M32 13C29.7909 13 28 11.2091 28 9V3C28 2.44771 28.4477 2 29 2H35C35.5523 2 36 2.44772 36 3V9C36 11.2091 34.2091 13 32 13Z"/>
</mask>
<path d="M32 13C29.7909 13 28 11.2091 28 9V3C28 2.44771 28.4477 2 29 2H35C35.5523 2 36 2.44772 36 3V9C36 11.2091 34.2091 13 32 13Z" stroke="#FF498B" stroke-width="6" mask="url(#path-7-inside-4)"/>
</svg>
