<svg width="48" height="48" viewBox="0 0 48 48" fill="none" xmlns="http://www.w3.org/2000/svg">
<g clip-path="url(#clip0)">
<rect width="48" height="48" fill="white"/>
<path d="M23.0979 6.8541C23.6966 5.01148 26.3034 5.01148 26.9021 6.8541L29.7148 15.5106C29.9825 16.3347 30.7505 16.8926 31.6169 16.8926H40.7189C42.6564 16.8926 43.4619 19.3718 41.8945 20.5106L34.5308 25.8607C33.8298 26.37 33.5365 27.2727 33.8043 28.0967L36.6169 36.7533C37.2157 38.5959 35.1067 40.1282 33.5393 38.9894L26.1756 33.6393C25.4746 33.13 24.5254 33.13 23.8244 33.6393L16.4607 38.9894C14.8933 40.1282 12.7843 38.5959 13.3831 36.7533L16.1957 28.0967C16.4635 27.2727 16.1702 26.37 15.4692 25.8607L8.1055 20.5106C6.53807 19.3718 7.34362 16.8926 9.28107 16.8926H18.3831C19.2495 16.8926 20.0175 16.3347 20.2852 15.5106L23.0979 6.8541Z" fill="#ECECEC"/>
</g>
<defs>
<clipPath id="clip0">
<rect width="48" height="48" fill="white"/>
</clipPath>
</defs>
</svg>
