<svg width="48" height="48" viewBox="0 0 48 48" fill="none" xmlns="http://www.w3.org/2000/svg">
<rect width="48" height="48" fill="white"/>
<mask id="path-1-inside-1" fill="white">
<path fill-rule="evenodd" clip-rule="evenodd" d="M18.4009 7C17.5598 7 16.8087 7.52613 16.5213 8.31651L15.1818 12H8C3.58172 12 0 15.5817 0 20V32C0 36.4183 3.58172 40 8 40H40C44.4183 40 48 36.4183 48 32V20C48 15.5817 44.4183 12 40 12H33.5455L32.0084 8.24273C31.7009 7.49108 30.9694 7 30.1573 7H18.4009Z"/>
</mask>
<path d="M16.5213 8.31651L13.7019 7.29128V7.29128L16.5213 8.31651ZM15.1818 12V15H17.2831L18.0012 13.0252L15.1818 12ZM33.5455 12L30.7688 13.1359L31.5314 15H33.5455V12ZM32.0084 8.24273L34.785 7.10684L34.785 7.10683L32.0084 8.24273ZM19.3406 9.34174C19.1969 9.73693 18.8214 10 18.4009 10V4C16.2983 4 14.4204 5.31534 13.7019 7.29128L19.3406 9.34174ZM18.0012 13.0252L19.3406 9.34174L13.7019 7.29128L12.3624 10.9748L18.0012 13.0252ZM8 15H15.1818V9H8V15ZM3 20C3 17.2386 5.23858 15 8 15V9C1.92487 9 -3 13.9249 -3 20H3ZM3 32V20H-3V32H3ZM8 37C5.23858 37 3 34.7614 3 32H-3C-3 38.0751 1.92487 43 8 43V37ZM40 37H8V43H40V37ZM45 32C45 34.7614 42.7614 37 40 37V43C46.0751 43 51 38.0751 51 32H45ZM45 20V32H51V20H45ZM40 15C42.7614 15 45 17.2386 45 20H51C51 13.9249 46.0751 9 40 9V15ZM33.5455 15H40V9H33.5455V15ZM29.2318 9.37863L30.7688 13.1359L36.3221 10.8641L34.785 7.10684L29.2318 9.37863ZM30.1573 10C29.7512 10 29.3855 9.75446 29.2318 9.37864L34.785 7.10683C34.0163 5.22771 32.1876 4 30.1573 4V10ZM18.4009 10H30.1573V4H18.4009V10Z" fill="#152C58" mask="url(#path-1-inside-1)"/>
<circle cx="24" cy="26" r="6.5" stroke="#FF498B" stroke-width="3"/>
<path d="M35.5 19H41" stroke="#152C58" stroke-width="3" stroke-linecap="round"/>
</svg>
